<svg height="512pt" viewBox="0 0 512 512.001" width="512pt" xmlns="http://www.w3.org/2000/svg"><path d="m503.953125 288.03125h-18.179687v-42.328125c0-4.953125-2.925782-9.351563-7.277344-10.949219-4.078125-1.496094-8.578125-.257812-11.464844 3.152344l-13.429688 15.863281-161.03125-18.183593 35.160157-42.214844c4.144531-4.878906 6.417969-11.09375 6.402343-17.503906l-.082031-24.652344c-.015625-4.132813-3.371093-7.472656-7.5-7.472656-.007812 0-.015625 0-.027343 0-3.9375.011718-7.152344 3.0625-7.445313 6.925781h-19.105469l-.226562-10.070313c-.09375-4.144531-3.5625-7.457031-7.667969-7.332031-4.140625.09375-7.421875 3.527344-7.328125 7.667969l.738281 32.886718c.003907.316407-.078125.628907-.238281.902344l-33.433594 56.128906-16-1.972656-32.257812-54.15625c-.160156-.273437-.242188-.582031-.238282-.90625l.742188-32.886718c.09375-4.140626-3.1875-7.574219-7.332031-7.667969-4.128907-.117188-7.574219 3.1875-7.664063 7.332031l-.230468 10.074219h-19.097657l.074219-28.582031c0-.222657-.007812-.445313-.027344-.667969-.789062-9.066407 2.167969-17.753907 8.316406-24.460938 6.152344-6.710937 14.554688-10.40625 23.660157-10.40625h42.644531.027344 42.613281c9.101563 0 17.503906 3.695313 23.65625 10.40625 6.152344 6.707031 9.109375 15.398438 8.320313 24.464844-.355469 4.128906 2.695312 7.761719 6.824218 8.121094.21875.019531.4375.03125.65625.03125 3.847656 0 7.125-2.949219 7.464844-6.855469 1.136719-13.113281-3.3125-26.199219-12.210938-35.898438-8.894531-9.703124-21.546874-15.269531-34.710937-15.269531h-10.910156c2.75-4.59375 4.332031-9.964843 4.332031-15.695312v-25.160157c.003906-16.925781-13.765625-30.695312-30.691406-30.695312h-5.371094c-16.925781 0-30.695312 13.769531-30.695312 30.695312v25.160157c0 5.730469 1.582031 11.101562 4.332031 15.695312h-16.277344c-13.167969 0-25.820313 5.566407-34.714844 15.269531-8.816406 9.613282-13.265625 22.554688-12.234375 35.550782l-.136718 53.503906c-.015626 6.402344 2.257812 12.617188 6.398437 17.496094l24.921875 29.359375-30.601562-3.78125c-6.289063-.789063-12.671876.960937-17.976563 4.929687l-11.78125 8.820313c-1.847656 1.386719-3.914063 2.117187-5.96875 2.117187h-2.601563c-2.351562-14.046875-14.589843-24.785156-29.296874-24.785156h-24.09375c-16.382813 0-29.714844 13.328125-29.714844 29.714844v5.140625c0 6.617187 2.175781 12.730469 5.84375 17.675781-8.609375 4.4375-14.511719 13.414062-14.511719 23.75v1.71875h-17.777344c-4.140625 0-7.519531 3.378906-7.519531 7.519531 0 18.25 14.847656 33.09375 33.09375 33.09375h50.136719v175.855469c0 4.144531 3.359375 7.5 7.5 7.5 4.144531 0 7.5-3.355469 7.5-7.5v-175.855469h18.730469c4.144531 0 7.5-3.359375 7.5-7.5s-3.355469-7.5-7.5-7.5h-83.867188c-7.308594 0-13.621094-4.359375-16.472656-10.613281h355.953125c4.144531 0 7.5-3.359375 7.5-7.5s-3.355469-7.5-7.5-7.5h-56.910157l-1.667968-4.390625c-2.585938-6.796875-8.226563-11.4375-14.726563-12.101563l-28.21875-2.890624v-20.394532l178.183594 20.117188v19.660156h-44.109375c-4.140625 0-7.5 3.359375-7.5 7.5 0 4.144531 3.359375 7.5 7.5 7.5h89.714844c-2.847656 6.253906-9.15625 10.613281-16.460938 10.613281h-234.71875c-.027344 0-.054687-.003906-.078125-.003906-.015625 0-.027343 0-.039062 0-.027344 0-.046875.003906-.070313.003906h-90.734375c-4.140625 0-7.5 3.359375-7.5 7.5 0 4.144531 3.359375 7.5 7.5 7.5h46.542969l7.804688 143.464844-15.621094 16.832031c-3.683594 3.972656-4.667969 9.746094-2.5 14.714844 2.164062 4.964844 7.066406 8.175781 12.484375 8.175781h83.988281c5.417969 0 10.320312-3.210937 12.488281-8.175781 2.164063-4.96875 1.183594-10.742188-2.503906-14.710938l-14.839844-15.996093 7.503907-144.304688h144.777343v175.855469c0 4.144531 3.359375 7.5 7.5 7.5 4.144531 0 7.5-3.355469 7.5-7.5v-175.855469h30.515625c18.234375 0 33.074219-14.835937 33.074219-33.113281 0-4.140625-3.359375-7.5-7.5-7.5zm-275.242187-257.335938c0-8.652343 7.042968-15.695312 15.695312-15.695312h5.371094c8.652344 0 15.695312 7.042969 15.695312 15.695312v25.160157c0 8.652343-7.042968 15.695312-15.695312 15.695312h-5.371094c-8.65625 0-15.695312-7.042969-15.695312-15.695312zm69.425781 151.703126c1.609375-2.695313 2.417969-5.777344 2.347656-8.914063l-.175781-7.816406h18.789062l.035156 10.242187c.007813 2.839844-1 5.589844-2.878906 7.808594l-40.015625 48.039062-6.824219-1.128906zm-128.457031-6.488282.027343-10.242187h18.796875l-.175781 7.808593c-.074219 3.132813.738281 6.21875 2.34375 8.917969l26.304687 44.160157-9-1.109376-35.464843-41.785156c-1.832031-2.160156-2.839844-4.914062-2.832031-7.75zm-120.714844 63.835938c0-8.113282 6.601562-14.714844 14.714844-14.714844h24.09375c8.113281 0 14.714843 6.601562 14.714843 14.714844v2.53125.039062.039063 2.535156c0 8.113281-6.601562 14.714844-14.714843 14.714844h-24.09375c-8.113282 0-14.714844-6.601563-14.714844-14.714844zm-8.667969 46.566406c0-6.457031 5.25-11.710938 11.707031-11.710938h45.753906c6.453126 0 11.707032 5.253907 11.707032 11.710938v1.71875h-69.167969zm259.230469 1.71875h-109.6875v-12.621094l107.902344 11.050782c.511718.054687 1.21875.597656 1.785156 1.570312zm-116.421875-28.390625c-.003907 0-.007813 0-.011719 0s-.011719 0-.015625 0l-34.613281-3.417969c-4.132813-.398437-7.796875 2.601563-8.203125 6.726563-.40625 4.121093 2.605469 7.792969 6.726562 8.199219l27.855469 2.75v14.132812h-50.378906v-1.71875c0-9.851562-5.367188-18.46875-13.324219-23.097656 3.007813-3.824219 5.09375-8.398438 5.933594-13.394532h2.601562c5.324219 0 10.5-1.769531 14.960938-5.117187l11.773437-8.8125c2.207032-1.652344 4.664063-2.363281 7.132813-2.050781l49.691406 6.136718c.035156.003907.0625.007813.097656.011719h.007813c.007812 0 .015625 0 .027344.003907l52.6875 6.5v20.621093zm281.128906 28.390625v-23.609375l6.539063-7.722656v31.332031zm-228.117187 40.613281.695312 138.734375h-14.960938l-7.550781-138.734375zm-18.09375 153.734375h17.921874v14.449219h-31.335937zm32.921874 14.449219v-14.449219h17.921876l13.414062 14.449219zm14.902344-29.449219h-14.035156l-.695312-138.734375h21.949218zm0 0"/></svg>