<svg height="512pt" viewBox="0 -82 512.00114 512" width="512pt" xmlns="http://www.w3.org/2000/svg"><path d="m504.496094 332.636719h-6.007813v-19.277344c0-.058594-.007812-.113281-.011719-.167969 0-.113281-.007812-.230468-.015624-.34375-.011719-.164062-.027344-.328125-.050782-.492187-.015625-.113281-.03125-.226563-.050781-.339844-.03125-.167969-.070313-.335937-.109375-.5-.027344-.105469-.054688-.210937-.085938-.316406-.054687-.183594-.121093-.363281-.191406-.546875-.023437-.066406-.039062-.132813-.070312-.199219l-61.179688-145.769531c-2.15625-5.140625-3.226562-10.621094-3.175781-16.296875.144531-17.199219-3.324219-33.800781-10.304687-49.339844-7.414063-16.503906-18.761719-31.296875-32.824219-42.816406-3.523438-3.375-7.09375-6.550781-10.914063-9.699219-3.195312-2.636719-7.925781-2.179688-10.5625 1.019531-2.636718 3.195313-2.183594 7.925781 1.019532 10.5625 2.046874 1.691407 4.019531 3.386719 5.949218 5.125l-32.355468 55.476563c-25.289063-28.816406-62.355469-47.039063-103.597657-47.039063-8.976562 0-17.753906.875-26.257812 2.523438-.144531.019531-.285157.046875-.429688.082031-9.21875 1.816406-18.117187 4.550781-26.582031 8.113281l-19.160156 5.871094-9.214844-22.964844 33.484375-17.753906c3.664063-1.941406 5.058594-6.484375 3.117187-10.148437-.792968-1.492188-2.019531-2.601563-3.441406-3.265626 15.386719-15.304687 41.015625-21.464843 76.476563-18.328124 26.625 2.359374 52.125 10.480468 75.785156 24.136718 3.589844 2.070313 8.179687.84375 10.253906-2.746094 2.070313-3.589843.839844-8.179687-2.75-10.253906-25.570312-14.757812-53.144531-23.535156-81.964843-26.085937-45.519532-4.027344-77.4375 6.191406-95.070313 30.375-5.167969-5.785157-12.414063-9.648438-20.539063-10.425781l-25.992187-2.5c-8.398437-.8125-16.609375 1.699218-23.121094 7.074218-6.507812 5.375-10.535156 12.957032-11.339843 21.347656l-.539063 5.570313c-.859375 8.984375 2.222656 17.6875 7.988281 24.128906l-94.1875 44.785157c-4.097656 1.949218-6.636718 6.136718-6.4648435 10.671874.1718755 4.53125 3.0156255 8.519532 7.2460935 10.152344l14.132813 5.457032c2.671875 1.03125 5.5 1.546874 8.328125 1.546874 2.492187 0 4.984375-.402343 7.375-1.207031l105.144531-35.414062c-12.722656 12.804687-22.953125 28.09375-29.90625 45.066406-.214844.410156-.390625.84375-.523437 1.285156-6.269532 15.753907-9.71875 32.925781-9.71875 50.886719 0 7.339844.578124 14.539062 1.6875 21.570312.027343.324219.085937.640626.15625.953126 7.234374 43.898437 35.230468 80.878906 73.535156 100.453124h-14.332032c-4.144531 0-7.503906 3.359376-7.503906 7.503907s3.359375 7.503906 7.503906 7.503906h341.363282c4.144531 0 7.503906-3.359375 7.503906-7.503906s-3.359375-7.5-7.503906-7.5zm-94.945313-227.441407c6.089844 13.554688 9.113281 28.042969 8.984375 43.066407-.0625 7.722656 1.398438 15.199219 4.347656 22.226562l57.136719 136.136719-17.113281 1.234375-6.101562.4375-91.332032-155.714844c-3.378906-7.414062-7.398437-14.472656-11.980468-21.117187l33.796874-57.941406c9.34375 9.054687 16.957032 19.863281 22.261719 31.671874zm-69.765625 176.074219c-22.476562 8.199219-46.105468 12.367188-70.277344 12.367188-57.375 0-112.332031-24.207031-151.164062-66.472657-.816406-5.71875-1.25-11.5625-1.25-17.503906 0-11.78125 1.667969-23.179687 4.773438-33.976562 10.761718 11.683594 22.671874 22.273437 35.574218 31.546875 1.324219.953125 2.855469 1.414062 4.375 1.414062 2.332032 0 4.632813-1.085937 6.097656-3.125 2.421876-3.363281 1.652344-8.054687-1.710937-10.472656-14.191406-10.203125-27.109375-22.101563-38.488281-35.375 8.617187-19.308594 22.054687-36 38.785156-48.527344 33.226562 44.050781 85.21875 70.140625 140.605469 70.140625 17.203125 0 34.128906-2.464844 50.429687-7.335937 3.433594 11.308593 5.289063 23.296875 5.289063 35.710937 0 5.183594-.328125 10.292969-.953125 15.3125-22.035156 7.289063-45.054688 10.984375-68.5 10.984375-34.804688 0-68.066406-7.960937-98.863282-23.652343-3.695312-1.882813-8.214843-.414063-10.09375 3.277343-1.882812 3.691407-.414062 8.210938 3.277344 10.09375 32.925782 16.78125 68.480469 25.289063 105.679688 25.289063 22.226562 0 44.105468-3.121094 65.214844-9.269532-3.886719 14.402344-10.324219 27.765626-18.800782 39.574219zm-1.203125-144.867187 13.546875 23.09375c.050782.113281.101563.234375.152344.347656-14.609375 4.269531-29.769531 6.433594-45.175781 6.433594-50.335938 0-97.613281-23.5625-128.035157-63.398438 4.109376-2.355468 8.371094-4.484375 12.761719-6.363281l24.796875-7.597656c7.554688-1.457031 15.355469-2.234375 23.332032-2.234375 40.34375 0 76.207031 19.570312 98.621093 49.71875zm-230.96875-82.660156.539063-5.570313c.425781-4.414063 2.539062-8.394531 5.957031-11.214844 3.414063-2.820312 7.726563-4.132812 12.125-3.710937l25.996094 2.5c5.691406.546875 10.566406 3.96875 13.109375 8.839844l-19.882813 10.542968-30.0625 14.292969c-5.269531-3.273437-8.386719-9.351563-7.78125-15.679687zm-75.3125 79.871093c-1.789062.601563-3.742187.558594-5.507812-.121093l-6.175781-2.382813 97.882812-46.542969c.042969-.019531.082031-.039062.125-.0625l26.21875-12.464844.855469 2.132813 7.511719 18.714844zm93.578125 121.699219c39.738282 34.160156 90.726563 53.332031 143.628906 53.332031 17.179688 0 34.109376-1.96875 50.597657-5.851562-21.53125 18.589843-49.550781 29.84375-80.148438 29.84375-51.636719 0-95.933593-32.054688-114.078125-77.324219zm224.109375 37.398438c.457031-.476563.851563-1.003907 1.167969-1.574219 12.550781-17.113281 21.257812-37.21875 24.839844-59.027344.042968-.207031.078125-.417969.105468-.632813 1.132813-7.109374 1.730469-14.394531 1.730469-21.816406 0-2.21875-.058593-4.421875-.164062-6.617187l65.605469 111.851562-17.871094 17.738281h-122.949219c18.710937-9.558593 34.960937-23.277343 47.535156-39.921874zm96.71875 39.925781 9.300781-9.230469 27.472657-1.984375v11.214844zm0 0"/></svg>