<svg id="Capa_1" enable-background="new 0 0 512 512" height="512" viewBox="0 0 512 512" width="512" xmlns="http://www.w3.org/2000/svg"><g><path d="m511.483 241.337c-1.632-10.371-7.676-19.928-17.177-25.649l-52.277-31.477-35.874-64.207c33.157.181 60.263-26.799 60.263-59.989 0-33.082-26.914-59.996-59.996-59.996-39.682 0-68.746 38.165-57.634 76.622-58.788 8.24-109.616 47.944-131.523 104.134l-69.754-18.427-11.86-40.208c-2.809-9.523-8.743-17.558-16.464-23.129 13.447-10.019 22.175-26.044 22.175-44.073 0-30.282-24.619-54.919-54.88-54.919s-54.88 24.637-54.88 54.919c0 19.849 10.578 37.272 26.388 46.922-17.045 11.313-28.797 29.814-31.08 51.214l-26.824 251.323c-.944 8.852 5.997 16.591 14.914 16.591h30.087l.066 76.007c.007 8.279 6.72 14.986 14.999 14.986h60.19c8.284 0 14.999-6.715 14.999-14.999v-75.994h30.073c9.261 0 16.334-8.333 14.79-17.492l-26.414-156.686 52.105 9.91v149.27c0 8.284 6.715 14.999 14.999 14.999h8.208v74.994c0 8.284 6.715 14.999 14.999 14.999h119.991c8.284 0 14.999-6.715 14.999-14.999.007-32.62.049-235.665.05-242.597.659.332 1.339.628 2.047.862 82.363 25.878 85.405 31.332 100.778 28.6v214.135c0 8.284 6.715 14.999 14.999 14.999s14.999-6.715 14.999-14.999c-.188-268.242.438-252.04-.481-255.646zm-105.062-211.32c16.541 0 29.998 13.457 29.998 29.998s-13.457 29.998-29.998 29.998-29.998-13.457-29.998-29.998 13.458-29.998 29.998-29.998zm-274.738 159.175 85.275 22.529c3.904 1.031 6.429 4.703 6.006 8.728-.498 4.737-4.933 8.048-9.598 7.155l-108.688-20.67-24.21-67.695c-3.229-9.03 3.424-18.551 13.05-18.574.005.004.022 0 .034 0 6.118 0 11.595 4.092 13.327 9.963l14.25 48.308c1.483 5.028 5.484 8.918 10.554 10.256zm-45.202-159.175c13.72 0 24.882 11.18 24.882 24.921 0 13.742-11.162 24.922-24.882 24.922s-24.882-11.18-24.882-24.922 11.162-24.921 24.882-24.921zm18.862 451.966h-30.205l-.053-60.996h30.259v60.996zm42.332-90.993c-12.053 0-97.511 0-115.99 0l24.583-230.338 23.053 64.462c1.79 5.006 6.097 8.691 11.32 9.685l31.719 6.033zm111.425 29.998h29.998v59.996h-29.998zm59.995 59.995v-59.996h29.998v59.996zm154.379-227.915-77.601-25.566-42.127-70.212c-4.261-7.103-13.476-9.405-20.578-5.144-7.103 4.261-9.407 13.475-5.145 20.579l21.12 35.199v183.066h-113.25v-139.572c19.066-12.593 22.839-39.167 8.12-56.514 18.516-51.234 65.422-86.236 119.553-89.622l54.219 97.039c1.273 2.279 3.12 4.186 5.357 5.534l55.69 33.533c6.531 3.931 1.963 14.096-5.358 11.68z"/></g></svg>