<?xml version="1.0" encoding="iso-8859-1"?>
<!-- Generator: Adobe Illustrator 19.0.0, SVG Export Plug-In . SVG Version: 6.00 Build 0)  -->
<svg version="1.1" id="Layer_1" xmlns="http://www.w3.org/2000/svg" xmlns:xlink="http://www.w3.org/1999/xlink" x="0px" y="0px"
	 viewBox="0 0 512 512" style="enable-background:new 0 0 512 512;" xml:space="preserve">
<g>
	<g>
		<path d="M402.689,218.397c-6.465-24.796-16.251-48.655-29.089-70.913c-4.608-7.986-14.817-10.726-22.804-6.12
			s-10.727,14.817-6.121,22.804c11.345,19.668,19.992,40.747,25.702,62.652c2.328,8.932,11.455,14.268,20.367,11.944
			C399.667,236.438,405.015,227.32,402.689,218.397z"/>
	</g>
</g>
<g>
	<g>
		<path d="M495.304,473.043h-16.695v-150.26c0-27.618-22.469-50.087-50.087-50.087h-84.154
			c-4.801-61.093-35.687-118.433-84.709-155.851c-19.834-15.14-47.197-14.091-64.879,1.655c-3.078,1.467-5.831,3.965-7.746,7.612
			l-0.003-0.001l-0.15,0.302c-0.009,0.018-0.017,0.034-0.026,0.051l-33.232,66.479l-59.791,59.792
			c-5.816,5.816-10.008,12.676-12.565,19.961H57.613l8.184-73.654l10.218,5.109c8.249,4.125,18.277,0.779,22.4-7.466
			c4.124-8.248,0.78-18.275-7.466-22.4l-66.782-33.391c-8.247-4.123-18.275-0.781-22.4,7.466c-4.124,8.248-0.78,18.275,7.466,22.4
			l25.235,12.617c-0.472,1.263-0.815,2.596-0.971,3.997L3.793,454.707c-3.065,27.582,18.561,51.726,46.297,51.726h445.214
			c9.22,0,16.696-7.475,16.696-16.696C512,480.517,504.525,473.043,495.304,473.043z M117.442,276.346l61.708-61.708
			c1.27-1.269,2.325-2.735,3.129-4.34l30.893-61.802c0.02-0.039,0.039-0.077,0.059-0.116c5.07-10.11,17.87-11.327,26.169-4.991
			c40.795,31.139,66.757,78.578,71.47,129.308h-33.544c-2.786-24.963-11.8-48.808-26.5-69.754
			c-7.243-10.32-22.933-9.206-28.598,2.125l-12.485,24.97c-0.811,1.622-1.872,3.094-3.153,4.376l-43.17,43.17
			c-0.002,0.002-0.003,0.003-0.006,0.006l-23.605,23.605c-6.656,6.655-17.881,6.716-24.501-0.965
			C109.753,293.79,110.712,283.076,117.442,276.346z M243.425,271.53c-0.326,0.387-0.647,0.778-0.971,1.166h-26.928l14.673-14.673
			c2.79-2.789,5.229-5.881,7.284-9.228C240.221,256.166,242.2,263.798,243.425,271.53z M50.09,473.044v-0.001
			c-7.868,0-13.981-6.812-13.11-14.648l16.923-152.308h27.025c1.942,5.735,4.959,11.157,9.086,15.944
			c19.025,22.071,52.747,23.433,73.404,2.775l18.718-18.829h36.403c-29.045,47.699-40.449,96.822-40.449,150.371
			c0,5.77,0.992,11.402,2.86,16.696H50.09z M244.871,455.109c0,8.585-5.687,16.15-13.227,17.597
			c-6.98,1.338-11.822-1.603-14.089-3.477c-3.86-3.19-6.075-7.886-6.075-12.882c0-46.221,9.183-89.028,34.935-131.819
			c1.923,18.413,5.651,36.43,11.091,53.849C247.398,406.202,244.871,430.099,244.871,455.109z M275.148,473.042
			c2.015-5.607,3.115-11.655,3.115-17.933c0-5.786-0.127-13.946,1.207-25.437c8.461,15.26,18.406,29.776,29.764,43.371H275.148z
			 M373.544,468.15c-6.529,6.528-17.076,6.529-23.606,0c-43.623-43.624-68.738-100.819-71.422-162.063h33.288
			c1.865,49.288,23.25,97.167,62.161,138.893C380.12,451.58,379.935,461.758,373.544,468.15z M445.218,473.043h-36.203
			c6.064-17.051,2.572-36.678-10.632-50.837c-23.274-24.956-50.801-64.975-53.157-116.119h83.296c9.206,0,16.696,7.49,16.696,16.696
			V473.043z"/>
	</g>
</g>
<g>
	<g>
		<path d="M144.816,5.57c-0.039,0-0.078-0.003-0.117-0.003c-0.011,0-0.022,0.001-0.034,0.001
			c-36.145,0.04-64.647,27.79-66.632,62.97c-2.321,40.951,32.404,74.358,73.459,70.25c32.375-3.305,58.363-29.192,59.911-63.386
			C213.134,37.198,182.631,5.614,144.816,5.57z M177.776,76.861c-2.045,15.074-13.834,26.182-27.693,28.439
			c-22.483,3.387-41.271-15.115-38.462-37.463c2.216-16.339,16.251-28.852,32.974-28.852
			C164.483,38.987,180.38,56.143,177.776,76.861z"/>
	</g>
</g>
<g>
</g>
<g>
</g>
<g>
</g>
<g>
</g>
<g>
</g>
<g>
</g>
<g>
</g>
<g>
</g>
<g>
</g>
<g>
</g>
<g>
</g>
<g>
</g>
<g>
</g>
<g>
</g>
<g>
</g>
</svg>
